<svg xmlns="http://www.w3.org/2000/svg" viewBox="129.63 28.95 504.98 504.97">
  <path d="M382.12,533.92c-67.44,0-130.85-26.26-178.54-73.95s-73.95-111.09-73.95-178.53,26.26-130.85,73.95-178.54S314.68,28.95,382.12,28.95s130.85,26.26,178.54,73.95c47.69,47.69,73.95,111.09,73.95,178.54s-26.26,130.85-73.95,178.53c-47.69,47.69-111.09,73.95-178.54,73.95ZM382.12,52.69c-61.1,0-118.54,23.79-161.75,67s-67,100.65-67,161.75,23.79,118.54,67,161.74c43.2,43.2,100.65,67,161.75,67s118.54-23.79,161.75-67,67-100.64,67-161.74-23.79-118.54-67-161.75c-43.2-43.2-100.65-67-161.75-67Z" fill="#467387"/>
  <path d="M414.55,202.82c0-65.27-31.58-103.16-31.58-103.16v.02-.02s-31.58,37.9-31.58,103.16,24.21,62.1,24.21,110.53-27.37,76.84-27.37,76.84l34.74,42.11v-.06s0,.06,0,.06l34.74-42.11s-27.37-28.42-27.37-76.84,24.2-45.27,24.2-110.53Z" fill="#467387"/>
  <path d="M498.02,252.95c18.26-1.26,35.22,6.91,47.16,20.78-13.25-31.93-40.96-53.13-71.47-51.04-38.45,2.62-67.49,41.31-67.33,87.96h-45.73c.16-46.65-28.88-85.34-67.33-87.96-30.51-2.09-58.22,19.11-71.47,51.04,11.94-13.87,28.9-22.04,47.16-20.78,28.78,1.96,51.22,26.65,54.73,57.69h-43.8c-3.04,0-5.5,2.46-5.5,5.5v2.24c0,3.04,2.46,5.5,5.5,5.5h44.13c-.01.2-.01.4-.03.6-2.55,37.26-31.32,65.63-64.26,63.37-8.08-.54-15.64-2.89-22.45-6.67,11.59,12.76,26.69,20.92,43.63,22.08,38.84,2.67,73.16-32.43,78.86-79.38h47.38c5.69,46.95,40.02,82.06,78.86,79.38,16.93-1.16,32.03-9.32,43.62-22.08-6.8,3.78-14.37,6.13-22.45,6.67-32.95,2.26-61.72-26.11-64.26-63.37-.01-.2-.02-.4-.03-.6h38.35c3.04,0,5.5-2.46,5.5-5.5v-2.24c0-3.04-2.46-5.5-5.5-5.5h-38.02c3.52-31.04,25.95-55.73,54.73-57.69Z" fill="#afb0a4"/>
</svg>