<svg xmlns="http://www.w3.org/2000/svg" viewBox="-118.24998488769532 -1 811.5 507.7999954223633"> <svg xmlns="http://www.w3.org/2000/svg" id="Layer_3" viewBox="129.6300048828125 28.950000762939453 504.97998046875 504.969970703125" height="287.4921875" width="287.5" y="69" x="143.751" preserveAspectRatio="xMinYMin" style="overflow: visible;"><path class="cls-1" d="M382.12,533.92c-67.44,0-130.85-26.26-178.54-73.95s-73.95-111.09-73.95-178.53,26.26-130.85,73.95-178.54S314.68,28.95,382.12,28.95s130.85,26.26,178.54,73.95c47.69,47.69,73.95,111.09,73.95,178.54s-26.26,130.85-73.95,178.53c-47.69,47.69-111.09,73.95-178.54,73.95ZM382.12,52.69c-61.1,0-118.54,23.79-161.75,67s-67,100.65-67,161.75,23.79,118.54,67,161.74c43.2,43.2,100.65,67,161.75,67s118.54-23.79,161.75-67,67-100.64,67-161.74-23.79-118.54-67-161.75c-43.2-43.2-100.65-67-161.75-67Z" style="fill: #467387; fill-opacity: 1;"></path><path class="cls-1" d="M414.55,202.82c0-65.27-31.58-103.16-31.58-103.16v.02-.02s-31.58,37.9-31.58,103.16,24.21,62.1,24.21,110.53-27.37,76.84-27.37,76.84l34.74,42.11v-.06s0,.06,0,.06l34.74-42.11s-27.37-28.42-27.37-76.84,24.2-45.27,24.2-110.53Z" style="fill: #467387; fill-opacity: 1;"></path><path class="cls-2" d="M498.02,252.95c18.26-1.26,35.22,6.91,47.16,20.78-13.25-31.93-40.96-53.13-71.47-51.04-38.45,2.62-67.49,41.31-67.33,87.96h-45.73c.16-46.65-28.88-85.34-67.33-87.96-30.51-2.09-58.22,19.11-71.47,51.04,11.94-13.87,28.9-22.04,47.16-20.78,28.78,1.96,51.22,26.65,54.73,57.69h-43.8c-3.04,0-5.5,2.46-5.5,5.5v2.24c0,3.04,2.46,5.5,5.5,5.5h44.13c-.01.2-.01.4-.03.6-2.55,37.26-31.32,65.63-64.26,63.37-8.08-.54-15.64-2.89-22.45-6.67,11.59,12.76,26.69,20.92,43.63,22.08,38.84,2.67,73.16-32.43,78.86-79.38h47.38c5.69,46.95,40.02,82.06,78.86,79.38,16.93-1.16,32.03-9.32,43.62-22.08-6.8,3.78-14.37,6.13-22.45,6.67-32.95,2.26-61.72-26.11-64.26-63.37-.01-.2-.02-.4-.03-.6h38.35c3.04,0,5.5-2.46,5.5-5.5v-2.24c0-3.04-2.46-5.5-5.5-5.5h-38.02c3.52-31.04,25.95-55.73,54.73-57.69Z" style="fill: #afb0a4;"></path></svg> <svg y="380" viewBox="-2.5299999713897705 19.1200008392334 671.5 56.79999542236328" x="-48.24998488769532" height="56.79999542236328" width="671.5" style="overflow: visible;"><g fill="#ffffff" fill-opacity="1" style=""><path d="M-2.53 75.44L-2.53 75.44Q-2.45 74.10-2.25 72.92Q-2.05 71.73-1.58 70.63L-1.58 70.63Q-0.16 70.23 0.91 69.44Q1.98 68.65 3.28 66.95Q4.58 65.25 6.40 62.25L6.40 62.25Q8.61 58.62 11.06 54.51Q13.51 50.40 16.31 45.58Q19.12 40.76 22.52 34.88Q25.91 28.99 30.02 21.80L30.02 21.80Q31.21 21.41 32.31 21.37Q33.42 21.33 34.68 21.33L34.68 21.33Q36.97 28.76 38.99 35.98Q41.00 43.21 42.74 49.85Q44.48 56.48 45.82 62.17L45.82 62.17Q46.61 65.65 47.28 67.39Q47.95 69.13 48.74 69.72Q49.53 70.31 50.64 70.63L50.64 70.63Q50.88 71.57 50.92 72.84Q50.95 74.10 50.80 75.44L50.80 75.44Q49.38 75.29 47.32 75.25Q45.27 75.21 43.29 75.21Q41.32 75.21 40.05 75.21L40.05 75.21Q39.10 75.21 37.60 75.21Q36.10 75.21 34.44 75.25Q32.79 75.29 31.21 75.33Q29.63 75.37 28.44 75.44L28.44 75.44Q28.52 74.02 28.72 72.80Q28.91 71.57 29.31 70.63L29.31 70.63Q32.71 70.07 33.50 68.81Q34.29 67.55 33.58 64.38L33.58 64.38Q32.31 59.25 31.01 54.08Q29.70 48.90 28.20 43.84L28.20 43.84Q27.49 41.32 27.02 38.39Q26.54 35.47 26.39 32.15L26.39 32.15L28.20 32.15Q26.70 35.47 25.24 38.39Q23.78 41.32 22.36 44.00L22.36 44.00Q19.75 48.90 16.98 53.80Q14.22 58.70 11.30 63.52L11.30 63.52Q9.95 65.73 9.72 67.19Q9.48 68.65 10.31 69.44Q11.14 70.23 13.04 70.63L13.04 70.63Q13.19 71.73 13.23 72.96Q13.27 74.18 13.04 75.44L13.04 75.44Q12.01 75.37 10.47 75.33Q8.93 75.29 7.35 75.25Q5.77 75.21 4.50 75.21L4.50 75.21Q2.45 75.21 0.71 75.25Q-1.03 75.29-2.53 75.44ZM11.14 60.75L11.14 60.75L13.11 55.69L33.18 55.69L33.73 60.12Q30.18 60.12 26.35 60.16Q22.52 60.20 18.64 60.32Q14.77 60.44 11.14 60.75ZM69.76 75.92L69.76 75.92Q65.25 75.92 62.53 74.30Q59.80 72.68 58.50 69.91Q57.20 67.15 57.08 63.71Q56.96 60.28 57.75 56.64L57.75 56.64Q58.46 53.25 59.96 49.97Q61.46 46.69 63.99 44.08Q66.52 41.48 70.15 39.89Q73.79 38.31 78.92 38.31L78.92 38.31Q81.61 38.31 84.10 38.99Q86.58 39.66 88.16 40.68L88.16 40.68Q87.37 42.82 86.98 44.99Q86.58 47.16 86.43 49.30L86.43 49.30Q84.06 50.24 81.05 49.69L81.05 49.69Q81.29 46.45 80.46 44.87Q79.63 43.29 77.50 43.29L77.50 43.29Q75.45 43.29 73.87 44.71Q72.28 46.14 71.22 48.66Q70.15 51.19 69.60 54.59L69.60 54.59Q69.13 57.27 68.97 59.84Q68.81 62.41 69.28 64.46Q69.76 66.52 71.14 67.70Q72.52 68.89 74.97 68.89L74.97 68.89Q77.42 68.89 79.67 67.86Q81.92 66.83 83.74 65.41L83.74 65.41Q84.45 66.44 84.81 67.47Q85.16 68.49 85.24 69.84L85.24 69.84Q81.84 73.08 78.09 74.50Q74.34 75.92 69.76 75.92ZM126.87 38.31L126.87 38.31Q127.74 38.87 128.18 39.66Q128.61 40.45 128.61 41.83Q128.61 43.21 128.06 45.58L128.06 45.58L124.27 62.09Q123.40 66.28 123.48 67.47Q123.56 68.65 124.66 68.65L124.66 68.65Q125.45 68.65 126.20 68.26Q126.95 67.86 128.06 66.91L128.06 66.91Q128.77 67.62 129.32 68.69Q129.88 69.76 130.11 70.86L130.11 70.86Q127.82 73.23 125.14 74.58Q122.45 75.92 119.29 75.92L119.29 75.92Q116.92 75.92 115.50 75.01Q114.08 74.10 113.44 72.60Q112.81 71.10 112.81 69.36Q112.81 67.62 113.13 66.04L113.13 66.04Q113.37 65.02 113.72 63.91Q114.08 62.80 114.51 61.66Q114.95 60.51 115.42 59.41L115.42 59.41L118.03 46.14L115.02 39.50Q118.34 39.58 121.34 39.30Q124.35 39.03 126.87 38.31ZM121.03 39.66L121.03 39.66L117.55 44.40Q116.53 43.84 114.98 43.57Q113.44 43.29 112.18 43.29L112.18 43.29Q108.31 43.29 106.10 46.57Q103.89 49.85 102.86 54.98L102.86 54.98Q101.59 61.07 102.15 64.23Q102.70 67.39 104.91 67.39L104.91 67.39Q106.25 67.39 108.31 65.41Q110.36 63.44 112.42 59.29Q114.47 55.14 115.89 48.66L115.89 48.66L117.39 42.34L120.40 42.90L116.53 60.12L114.95 60.12Q113.21 64.86 110.76 68.41Q108.31 71.97 105.35 73.94Q102.38 75.92 98.91 75.92L98.91 75.92Q95.75 75.92 93.81 74.50Q91.88 73.08 90.97 70.55Q90.06 68.02 90.06 64.78Q90.06 61.54 90.77 57.99L90.77 57.99Q91.88 52.46 94.76 47.99Q97.64 43.53 102.34 40.92Q107.05 38.31 113.37 38.31L113.37 38.31Q115.66 38.31 117.63 38.71Q119.61 39.10 121.03 39.66ZM163.21 75.92L163.21 75.92Q159.90 75.92 158.39 74.42Q156.89 72.92 156.66 70.67Q156.42 68.41 156.89 66.28L156.89 66.28Q157.05 65.25 157.45 64.03Q157.84 62.80 158.32 61.50Q158.79 60.20 159.19 59.09L159.19 59.09L161.48 44.00Q160.92 42.11 161.00 39.50Q161.08 36.89 161.48 34.21L161.48 34.21Q162.03 30.81 162.03 29.27Q162.03 27.73 161.00 27.29Q159.97 26.86 157.37 26.86L157.37 26.86Q157.37 25.75 157.53 24.53Q157.68 23.30 158.16 22.36L158.16 22.36Q160.45 22.28 163.10 21.80Q165.74 21.33 168.23 20.62Q170.72 19.91 172.62 19.12L172.62 19.12Q174.04 20.07 174.51 21.29Q174.98 22.52 174.51 25.20L174.51 25.20L168.19 60.99Q167.64 64.46 167.44 66.08Q167.24 67.70 167.48 68.18Q167.72 68.65 168.35 68.65L168.35 68.65Q168.98 68.65 169.77 68.26Q170.56 67.86 171.82 66.91L171.82 66.91Q172.54 67.62 173.09 68.69Q173.64 69.76 173.80 70.86L173.80 70.86Q171.59 73.15 168.86 74.54Q166.14 75.92 163.21 75.92ZM164.64 39.66L164.64 39.66L161.16 44.40Q160.13 43.84 158.59 43.57Q157.05 43.29 155.79 43.29L155.79 43.29Q151.92 43.29 149.70 46.57Q147.49 49.85 146.47 54.98L146.47 54.98Q145.20 61.07 145.75 64.23Q146.31 67.39 148.52 67.39L148.52 67.39Q149.86 67.39 151.92 65.41Q153.97 63.44 156.03 59.29Q158.08 55.14 159.50 48.66L159.50 48.66L161.00 42.34L164.00 42.90L160.13 60.12L158.55 60.12Q156.81 64.86 154.37 68.41Q151.92 71.97 148.95 73.94Q145.99 75.92 142.52 75.92L142.52 75.92Q139.36 75.92 137.42 74.50Q135.48 73.08 134.58 70.55Q133.67 68.02 133.67 64.78Q133.67 61.54 134.38 57.99L134.38 57.99Q135.48 52.46 138.37 47.99Q141.25 43.53 145.95 40.92Q150.65 38.31 156.97 38.31L156.97 38.31Q159.26 38.31 161.24 38.71Q163.21 39.10 164.64 39.66ZM186.36 75.92L186.36 75.92Q182.81 75.92 181.15 74.30Q179.49 72.68 179.37 69.76Q179.25 66.83 180.12 63.04L180.12 63.04L182.49 53.88Q183.36 50.48 183.44 48.78Q183.52 47.08 182.45 46.57Q181.38 46.06 178.86 46.06L178.86 46.06Q178.78 44.95 178.97 43.73Q179.17 42.50 179.57 41.55L179.57 41.55Q181.86 41.48 184.27 41.00Q186.68 40.53 188.89 39.82Q191.10 39.10 192.92 38.31L192.92 38.31Q194.97 39.26 195.68 41.32Q196.39 43.37 195.37 47.40L195.37 47.40L191.81 62.41Q190.86 66.36 191.02 67.51Q191.18 68.65 192.13 68.65L192.13 68.65Q192.76 68.65 193.59 68.26Q194.42 67.86 195.45 66.91L195.45 66.91Q196.16 67.55 196.71 68.65Q197.26 69.76 197.42 70.86L197.42 70.86Q194.97 73.39 192.13 74.66Q189.28 75.92 186.36 75.92ZM190.78 32.39L190.78 32.39Q188.02 32.39 186.60 30.69Q185.18 28.99 185.65 26.23L185.65 26.23Q186.12 23.46 188.14 21.96Q190.15 20.46 193.23 20.46L193.23 20.46Q196.00 20.46 197.50 22.20Q199.00 23.94 198.45 26.78L198.45 26.78Q197.97 29.39 196.00 30.89Q194.02 32.39 190.78 32.39ZM237.87 38.31L237.87 38.31Q238.74 38.87 239.17 39.66Q239.61 40.45 239.61 41.83Q239.61 43.21 239.05 45.58L239.05 45.58L235.26 62.09Q234.39 66.28 234.47 67.47Q234.55 68.65 235.66 68.65L235.66 68.65Q236.45 68.65 237.20 68.26Q237.95 67.86 239.05 66.91L239.05 66.91Q239.76 67.62 240.32 68.69Q240.87 69.76 241.11 70.86L241.11 70.86Q238.82 73.23 236.13 74.58Q233.44 75.92 230.28 75.92L230.28 75.92Q227.91 75.92 226.49 75.01Q225.07 74.10 224.44 72.60Q223.81 71.10 223.81 69.36Q223.81 67.62 224.12 66.04L224.12 66.04Q224.36 65.02 224.72 63.91Q225.07 62.80 225.51 61.66Q225.94 60.51 226.41 59.41L226.41 59.41L229.02 46.14L226.02 39.50Q229.34 39.58 232.34 39.30Q235.34 39.03 237.87 38.31ZM232.02 39.66L232.02 39.66L228.55 44.40Q227.52 43.84 225.98 43.57Q224.44 43.29 223.17 43.29L223.17 43.29Q219.30 43.29 217.09 46.57Q214.88 49.85 213.85 54.98L213.85 54.98Q212.59 61.07 213.14 64.23Q213.69 67.39 215.91 67.39L215.91 67.39Q217.25 67.39 219.30 65.41Q221.36 63.44 223.41 59.29Q225.47 55.14 226.89 48.66L226.89 48.66L228.39 42.34L231.39 42.90L227.52 60.12L225.94 60.12Q224.20 64.86 221.75 68.41Q219.30 71.97 216.34 73.94Q213.38 75.92 209.90 75.92L209.90 75.92Q206.74 75.92 204.81 74.50Q202.87 73.08 201.96 70.55Q201.06 68.02 201.06 64.78Q201.06 61.54 201.77 57.99L201.77 57.99Q202.87 52.46 205.76 47.99Q208.64 43.53 213.34 40.92Q218.04 38.31 224.36 38.31L224.36 38.31Q226.65 38.31 228.63 38.71Q230.60 39.10 232.02 39.66ZM257.46 75.21L246.01 75.21L250.11 53.40Q250.75 50.16 250.75 48.58Q250.75 47.00 249.68 46.53Q248.61 46.06 246.09 46.06L246.09 46.06Q246.09 44.95 246.24 43.73Q246.40 42.50 246.80 41.55L246.80 41.55Q249.09 41.48 251.73 41.00Q254.38 40.53 256.91 39.82Q259.44 39.10 261.33 38.31L261.33 38.31Q262.75 38.95 263.27 40.25Q263.78 41.55 263.46 43.45L263.46 43.45Q262.99 46.37 262.28 48.55Q261.57 50.72 260.46 53.25L260.46 53.25L258.73 68.26L257.46 75.21ZM277.84 38.31L277.84 38.31Q279.82 38.31 281.48 39.10Q283.14 39.89 284.20 41.67Q285.27 43.45 285.47 46.45Q285.66 49.45 284.64 53.80L284.64 53.80L282.74 61.86Q282.03 65.02 281.79 66.44Q281.56 67.86 281.83 68.26Q282.11 68.65 282.66 68.65L282.66 68.65Q283.37 68.65 284.28 68.18Q285.19 67.70 286.14 66.91L286.14 66.91Q286.85 67.62 287.44 68.69Q288.03 69.76 288.19 70.86L288.19 70.86Q285.58 73.47 282.78 74.69Q279.98 75.92 277.13 75.92L277.13 75.92Q273.26 75.92 271.68 74.22Q270.10 72.52 270.14 69.44Q270.18 66.36 271.05 62.41L271.05 62.41L272.71 55.22Q273.34 52.38 273.34 50.60Q273.34 48.82 272.83 47.99Q272.31 47.16 271.29 47.16L271.29 47.16Q269.94 47.16 268.20 48.55Q266.47 49.93 264.65 52.57Q262.83 55.22 261.25 59.17Q259.67 63.12 258.73 68.26L258.73 68.26L258.49 57.51L261.81 50.64Q262.91 48.35 264.65 46.14Q266.39 43.92 268.52 42.15Q270.65 40.37 273.06 39.34Q275.47 38.31 277.84 38.31ZM328.56 38.31L328.56 38.31Q329.43 38.87 329.86 39.66Q330.30 40.45 330.30 41.83Q330.30 43.21 329.75 45.58L329.75 45.58L325.95 62.09Q325.09 66.28 325.16 67.47Q325.24 68.65 326.35 68.65L326.35 68.65Q327.14 68.65 327.89 68.26Q328.64 67.86 329.75 66.91L329.75 66.91Q330.46 67.62 331.01 68.69Q331.56 69.76 331.80 70.86L331.80 70.86Q329.51 73.23 326.82 74.58Q324.14 75.92 320.98 75.92L320.98 75.92Q318.61 75.92 317.19 75.01Q315.76 74.10 315.13 72.60Q314.50 71.10 314.50 69.36Q314.50 67.62 314.82 66.04L314.82 66.04Q315.05 65.02 315.41 63.91Q315.76 62.80 316.20 61.66Q316.63 60.51 317.11 59.41L317.11 59.41L319.71 46.14L316.71 39.50Q320.03 39.58 323.03 39.30Q326.03 39.03 328.56 38.31ZM322.72 39.66L322.72 39.66L319.24 44.40Q318.21 43.84 316.67 43.57Q315.13 43.29 313.87 43.29L313.87 43.29Q310.00 43.29 307.78 46.57Q305.57 49.85 304.55 54.98L304.55 54.98Q303.28 61.07 303.83 64.23Q304.39 67.39 306.60 67.39L306.60 67.39Q307.94 67.39 310.00 65.41Q312.05 63.44 314.10 59.29Q316.16 55.14 317.58 48.66L317.58 48.66L319.08 42.34L322.08 42.90L318.21 60.12L316.63 60.12Q314.89 64.86 312.45 68.41Q310.00 71.97 307.03 73.94Q304.07 75.92 300.60 75.92L300.60 75.92Q297.44 75.92 295.50 74.50Q293.56 73.08 292.66 70.55Q291.75 68.02 291.75 64.78Q291.75 61.54 292.46 57.99L292.46 57.99Q293.56 52.46 296.45 47.99Q299.33 43.53 304.03 40.92Q308.73 38.31 315.05 38.31L315.05 38.31Q317.34 38.31 319.32 38.71Q321.29 39.10 322.72 39.66ZM350.29 75.44L350.29 75.44Q350.37 74.18 350.56 73.00Q350.76 71.81 351.31 70.55L351.31 70.55Q353.53 70.31 354.67 69.60Q355.82 68.89 356.45 67.07Q357.08 65.25 357.71 61.70L357.71 61.70L362.45 34.13Q363.01 31.13 362.77 29.55Q362.53 27.97 361.39 27.33Q360.24 26.70 358.11 26.39L358.11 26.39Q357.95 25.28 357.91 24.09Q357.87 22.91 358.11 21.57L358.11 21.57Q360.16 21.65 362.61 21.69Q365.06 21.73 367.55 21.76Q370.04 21.80 372.29 21.80Q374.54 21.80 376.20 21.80L376.20 21.80L369.40 62.33Q368.77 65.81 368.97 67.55Q369.17 69.28 370.55 69.84Q371.93 70.39 374.54 70.39L374.54 70.39L372.17 75.21Q369.72 75.21 366.80 75.21Q363.87 75.21 360.87 75.25Q357.87 75.29 355.11 75.33Q352.34 75.37 350.29 75.44ZM390.89 75.44L390.89 75.44Q388.60 75.29 385.52 75.25Q382.44 75.21 379.04 75.21Q375.65 75.21 372.17 75.21L372.17 75.21L374.54 70.39L375.88 70.39Q379.60 70.39 381.97 69.28Q384.34 68.18 385.99 65.81Q387.65 63.44 389.08 59.72L389.08 59.72Q390.81 59.96 392.16 60.51Q393.50 61.07 394.76 62.09L394.76 62.09Q393.66 64.70 392.59 68.22Q391.52 71.73 390.89 75.44ZM385.68 57.99L385.68 57.99Q384.18 57.91 382.87 57.67Q381.57 57.43 380.39 56.88L380.39 56.88Q380.54 54.75 380.07 53.36Q379.60 51.98 378.17 51.23Q376.75 50.48 373.99 50.48L373.99 50.48L368.85 50.48L369.64 45.74L374.54 45.74Q378.73 45.74 380.50 44.60Q382.28 43.45 382.75 39.82L382.75 39.82Q384.18 39.58 385.52 39.50Q386.86 39.42 388.36 39.58L388.36 39.58Q387.81 41.71 387.38 43.88Q386.94 46.06 386.55 49.14L386.55 49.14Q386.23 51.59 386.03 53.80Q385.84 56.01 385.68 57.99ZM391.37 36.02L391.37 36.02Q391.21 32.94 390.50 30.85Q389.79 28.76 387.65 27.69Q385.52 26.62 381.02 26.62L381.02 26.62L372.88 26.62L375.80 21.80Q380.62 21.80 384.45 21.76Q388.29 21.73 391.56 21.69Q394.84 21.65 397.92 21.57L397.92 21.57Q397.45 24.65 397.25 28.36Q397.05 32.07 397.29 35.23L397.29 35.23Q394.68 36.02 391.37 36.02ZM413.17 38.31L413.17 38.31Q414.43 38.55 415.26 39.38Q416.09 40.21 416.65 42.50L416.65 42.50Q417.28 45.19 417.79 47.52Q418.31 49.85 418.46 51.59L418.46 51.59L420.60 54.11Q421.39 57.12 422.45 60.12Q423.52 63.12 424.63 65.49L424.63 65.49Q425.49 67.31 426.32 67.86Q427.15 68.41 428.18 68.41L428.18 68.41Q428.89 68.41 429.60 68.06Q430.31 67.70 431.18 66.91L431.18 66.91Q432.05 67.78 432.49 68.73Q432.92 69.68 433.16 70.86L433.16 70.86Q431.26 73.08 428.38 74.50Q425.49 75.92 422.89 75.92L422.89 75.92Q420.04 75.92 418.19 74.89Q416.33 73.86 415.30 71.89L415.30 71.89Q414.28 69.91 413.49 67.82Q412.70 65.73 412.22 63.91L412.22 63.91L410.17 61.15Q409.62 58.46 408.86 55.77Q408.11 53.09 407.40 50.72L407.40 50.72Q406.53 47.87 405.11 46.93Q403.69 45.98 400.69 46.14L400.69 46.14Q400.61 44.87 400.77 43.69Q400.93 42.50 401.32 41.55L401.32 41.55Q403.14 41.40 405.43 40.88Q407.72 40.37 409.85 39.70Q411.99 39.03 413.17 38.31ZM432.29 38.31L432.29 38.31Q433.63 38.31 434.70 38.59Q435.76 38.87 436.63 39.50L436.63 39.50Q435.61 42.11 434.90 45.27Q434.18 48.43 434.03 51.51L434.03 51.51Q431.50 52.77 428.42 52.53L428.42 52.53Q428.50 50.09 427.86 49.18Q427.23 48.27 426.28 48.27L426.28 48.27Q425.42 48.27 424.55 49.22Q423.68 50.16 422.73 51.71Q421.78 53.25 420.99 55.18Q420.20 57.12 419.65 59.17L419.65 59.17L416.01 56.41Q417.36 52.85 419.10 49.61Q420.83 46.37 422.89 43.81Q424.94 41.24 427.31 39.78Q429.68 38.31 432.29 38.31ZM397.05 63.36L397.05 63.36Q398.24 62.73 399.82 62.49Q401.40 62.25 402.98 62.41L402.98 62.41Q402.98 64.46 403.49 65.25Q404.01 66.04 404.88 66.04L404.88 66.04Q405.90 66.04 407.17 64.70Q408.43 63.36 409.69 60.87Q410.96 58.38 411.83 55.06L411.83 55.06L415.46 57.83Q414.12 61.38 412.38 64.62Q410.64 67.86 408.55 70.43Q406.46 73.00 404.12 74.46Q401.79 75.92 399.19 75.92L399.19 75.92Q397.92 75.92 397.01 75.72Q396.11 75.52 395.24 74.89L395.24 74.89Q395.79 73.31 396.19 71.26Q396.58 69.20 396.82 67.11Q397.05 65.02 397.05 63.36ZM450.38 75.92L450.38 75.92Q446.19 75.92 444.02 73.86Q441.85 71.81 441.49 67.86Q441.14 63.91 442.48 58.30L442.48 58.30L446.98 39.03Q447.85 35.47 448.33 32.90Q448.80 30.34 448.88 28.68L448.88 28.68Q451.33 28.44 453.93 27.77Q456.54 27.10 458.04 26.23L458.04 26.23Q459.46 26.62 459.86 27.97Q460.25 29.31 459.94 31.68Q459.62 34.05 458.75 37.52L458.75 37.52L454.09 57.51Q453.14 62.02 453.07 64.46Q452.99 66.91 453.74 67.86Q454.49 68.81 455.67 68.81L455.67 68.81Q456.78 68.81 458.08 68.10Q459.39 67.39 460.41 66.28L460.41 66.28Q461.12 66.99 461.64 68.22Q462.15 69.44 462.23 70.55L462.23 70.55Q461.12 71.89 459.15 73.15Q457.17 74.42 454.88 75.17Q452.59 75.92 450.38 75.92ZM447.46 39.82L447.22 45.66Q445.17 45.11 443.27 44.83Q441.37 44.56 439.87 44.56L439.87 44.56Q439.87 43.29 440.11 41.99Q440.35 40.68 440.90 39.82L440.90 39.82L447.46 39.82ZM456.30 45.66L456.30 45.66L456.62 39.82L466.18 39.82Q466.18 41.16 466.06 42.50Q465.94 43.84 465.47 44.71L465.47 44.71Q462.62 44.71 460.49 44.95Q458.36 45.19 456.30 45.66ZM479.61 75.92L479.61 75.92Q475.19 75.92 472.46 74.34Q469.73 72.76 468.47 70.03Q467.21 67.31 467.09 63.99Q466.97 60.67 467.60 57.20L467.60 57.20Q468.79 51.19 471.87 46.97Q474.95 42.74 479.25 40.53Q483.56 38.31 488.54 38.31L488.54 38.31Q492.57 38.31 495.09 39.66Q497.62 41.00 498.65 43.17Q499.68 45.35 499.12 47.87L499.12 47.87Q498.65 50.24 496.79 52.46Q494.94 54.67 492.05 56.45Q489.17 58.22 485.49 59.29Q481.82 60.36 477.87 60.44L477.87 60.44L478.11 55.85Q483.01 55.69 486.52 53.76Q490.04 51.82 490.75 48.51L490.75 48.51Q491.22 46.06 490.39 44.63Q489.56 43.21 487.43 43.21L487.43 43.21Q485.06 43.21 482.85 46.02Q480.64 48.82 479.53 54.91L479.53 54.91Q478.90 58.46 478.94 61.66Q478.98 64.86 480.36 66.83Q481.74 68.81 484.90 68.81L484.90 68.81Q487.19 68.81 489.37 67.90Q491.54 66.99 493.36 65.41L493.36 65.41Q494.15 66.36 494.50 67.43Q494.86 68.49 494.86 69.84L494.86 69.84Q491.78 72.76 488.18 74.34Q484.59 75.92 479.61 75.92ZM517.85 38.31L517.85 38.31Q519.35 39.03 519.74 40.33Q520.14 41.63 519.82 43.84L519.82 43.84Q519.50 45.82 518.56 48.82Q517.61 51.82 516.27 54.83L516.27 54.83L516.42 54.83L518.24 50.72Q519.90 47.16 521.99 44.36Q524.09 41.55 526.57 39.93Q529.06 38.31 531.91 38.31L531.91 38.31Q534.28 38.31 536.02 39.50L536.02 39.50Q535.07 42.34 534.40 45.82Q533.72 49.30 533.57 52.38L533.57 52.38Q532.38 52.93 530.68 53.21Q528.98 53.48 527.33 53.40L527.33 53.40Q527.56 51.35 527.05 50.36Q526.54 49.38 525.59 49.38L525.59 49.38Q524.80 49.38 523.57 50.44Q522.35 51.51 520.93 54.04L520.93 54.04Q519.50 56.48 518.04 60.63Q516.58 64.78 515.63 69.76L515.63 69.76L514.69 75.21L503.23 75.21L507.34 53.40Q507.97 50.16 507.97 48.58Q507.97 47.00 506.94 46.53Q505.92 46.06 503.39 46.06L503.39 46.06Q503.39 44.95 503.55 43.73Q503.70 42.50 504.18 41.55L504.18 41.55Q506.47 41.40 508.92 40.96Q511.37 40.53 513.66 39.82Q515.95 39.10 517.85 38.31ZM545.81 75.92L545.81 75.92Q542.26 75.92 540.60 74.30Q538.94 72.68 538.82 69.76Q538.70 66.83 539.57 63.04L539.57 63.04L541.94 53.88Q542.81 50.48 542.89 48.78Q542.97 47.08 541.90 46.57Q540.83 46.06 538.31 46.06L538.31 46.06Q538.23 44.95 538.42 43.73Q538.62 42.50 539.02 41.55L539.02 41.55Q541.31 41.48 543.72 41.00Q546.13 40.53 548.34 39.82Q550.55 39.10 552.37 38.31L552.37 38.31Q554.42 39.26 555.13 41.32Q555.84 43.37 554.82 47.40L554.82 47.40L551.26 62.41Q550.31 66.36 550.47 67.51Q550.63 68.65 551.58 68.65L551.58 68.65Q552.21 68.65 553.04 68.26Q553.87 67.86 554.90 66.91L554.90 66.91Q555.61 67.55 556.16 68.65Q556.71 69.76 556.87 70.86L556.87 70.86Q554.42 73.39 551.58 74.66Q548.73 75.92 545.81 75.92ZM550.24 32.39L550.24 32.39Q547.47 32.39 546.05 30.69Q544.63 28.99 545.10 26.23L545.10 26.23Q545.57 23.46 547.59 21.96Q549.60 20.46 552.68 20.46L552.68 20.46Q555.45 20.46 556.95 22.20Q558.45 23.94 557.90 26.78L557.90 26.78Q557.42 29.39 555.45 30.89Q553.47 32.39 550.24 32.39ZM576.94 75.92L576.94 75.92Q570.93 75.92 567.14 73.51Q563.35 71.10 561.89 66.83Q560.43 62.57 561.37 57.04L561.37 57.04Q562.32 51.19 565.32 47.04Q568.33 42.90 572.91 40.61Q577.49 38.31 583.26 38.31L583.26 38.31Q589.18 38.31 592.93 40.65Q596.69 42.98 598.23 47.12Q599.77 51.27 598.82 56.88L598.82 56.88Q597.95 62.65 594.95 66.95Q591.95 71.26 587.37 73.59Q582.78 75.92 576.94 75.92ZM577.81 71.10L577.81 71.10Q579.86 71.10 581.64 69.44Q583.42 67.78 584.80 64.70Q586.18 61.62 586.89 57.35L586.89 57.35Q588.00 51.03 586.73 47.08Q585.47 43.13 582.15 43.13L582.15 43.13Q579.15 43.13 576.82 46.77Q574.49 50.40 573.38 56.33L573.38 56.33Q572.67 60.91 572.95 64.23Q573.22 67.55 574.53 69.32Q575.83 71.10 577.81 71.10ZM618.73 38.31L618.73 38.31Q620.23 39.03 620.62 40.33Q621.02 41.63 620.70 43.84L620.70 43.84Q620.39 45.82 619.44 48.82Q618.49 51.82 617.15 54.83L617.15 54.83L617.31 54.83L619.12 50.72Q620.78 47.16 622.88 44.36Q624.97 41.55 627.46 39.93Q629.95 38.31 632.79 38.31L632.79 38.31Q635.16 38.31 636.90 39.50L636.90 39.50Q635.95 42.34 635.28 45.82Q634.61 49.30 634.45 52.38L634.45 52.38Q633.26 52.93 631.57 53.21Q629.87 53.48 628.21 53.40L628.21 53.40Q628.45 51.35 627.93 50.36Q627.42 49.38 626.47 49.38L626.47 49.38Q625.68 49.38 624.46 50.44Q623.23 51.51 621.81 54.04L621.81 54.04Q620.39 56.48 618.93 60.63Q617.46 64.78 616.52 69.76L616.52 69.76L615.57 75.21L604.11 75.21L608.22 53.40Q608.85 50.16 608.85 48.58Q608.85 47.00 607.83 46.53Q606.80 46.06 604.27 46.06L604.27 46.06Q604.27 44.95 604.43 43.73Q604.59 42.50 605.06 41.55L605.06 41.55Q607.35 41.40 609.80 40.96Q612.25 40.53 614.54 39.82Q616.83 39.10 618.73 38.31ZM656.73 38.31L656.73 38.31Q660.05 38.31 663.40 39.10Q666.76 39.89 668.97 41.08L668.97 41.08Q667.55 45.35 667.47 50.88L667.47 50.88Q666.13 51.43 664.55 51.63Q662.97 51.82 661.39 51.74L661.39 51.74Q661.31 47.40 660.01 45.23Q658.70 43.05 656.02 43.05L656.02 43.05Q654.36 43.05 653.33 43.69Q652.30 44.32 652.07 45.66L652.07 45.66Q651.67 47.32 652.62 48.78Q653.57 50.24 655.31 51.67Q657.04 53.09 658.98 54.59Q660.91 56.09 662.53 57.91Q664.15 59.72 664.98 61.98Q665.81 64.23 665.26 67.23L665.26 67.23Q664.63 70.47 662.69 72.36Q660.76 74.26 657.48 75.09Q654.20 75.92 649.30 75.92L649.30 75.92Q644.96 75.92 641.60 75.01Q638.24 74.10 636.19 72.76L636.19 72.76Q636.98 70.39 637.37 67.98Q637.77 65.57 637.85 63.04L637.85 63.04Q640.53 62.02 643.93 62.33L643.93 62.33Q643.93 66.44 645.27 68.69Q646.62 70.94 649.85 70.94L649.85 70.94Q651.67 70.94 652.66 70.23Q653.65 69.52 653.88 68.41L653.88 68.41Q654.28 66.68 652.90 65.06Q651.51 63.44 649.34 61.70Q647.17 59.96 645.07 57.91Q642.98 55.85 641.76 53.21Q640.53 50.56 641.24 47.00L641.24 47.00Q641.88 43.77 643.93 41.87Q645.98 39.97 649.26 39.14Q652.54 38.31 656.73 38.31Z" transform="translate(0, 0)"></path></g></svg></svg>